# Blender v2.79 (sub 0) OBJ File: 'recup objets.blend'
# www.blender.org
# mtllib camion.mtl
o Cylinder.4777_Cylinder.4882
v 1.005094 0.761638 1.099187
v 1.005094 1.884414 1.099187
v 1.005094 0.761638 -0.307557
v 1.005094 1.884414 -0.307557
v 2.188789 1.779082 -0.204982
v 2.188789 1.226986 -0.204982
v 2.189563 1.974592 -0.476176
v 2.184484 1.974592 1.303665
v 2.185302 1.226986 1.016931
v 2.185302 1.779082 1.016931
v 2.184484 0.326584 1.303665
v 2.189564 0.326584 -0.476176
v -1.584359 0.326584 -0.486947
v -1.584359 0.616584 -0.486947
v 1.182685 0.616585 -0.479050
v 1.391979 1.795667 -0.478453
v 1.391979 1.244345 -0.478453
v 2.012596 1.244345 -0.476681
v 1.177605 1.974592 1.300791
v 1.182685 1.974592 -0.479050
v 2.007516 1.244345 1.303160
v 1.386899 1.244345 1.301389
v 1.386899 1.795666 1.301389
v 1.177605 0.616585 1.300791
v -1.589439 0.616584 1.292894
v -1.589439 0.326584 1.292894
v 1.857457 1.797012 -0.477124
v 2.008335 1.244345 1.016426
v 1.497231 1.244345 1.014967
v 1.500718 1.244345 -0.206946
v 2.011822 1.244345 -0.205487
v 1.852377 1.797012 1.302717
v 1.861819 1.778715 -0.205915
v 1.858332 1.778715 1.015998
v 1.497231 1.226986 1.014967
v 1.500718 1.226986 -0.206946
v 1.129204 0.658255 -0.479202
v 1.124124 0.658255 1.300639
v -1.640826 0.658255 1.292747
v -1.635746 0.658255 -0.487094
v 1.129204 2.012279 -0.479203
v 1.124124 2.012279 1.300639
v -1.640826 2.012279 1.292747
v -1.635746 2.012278 -0.487094
v 1.500619 -0.059186 -0.552165
v 1.499450 -0.053966 -0.142644
v 1.437913 -0.053011 -0.552423
v 1.436744 -0.047790 -0.142902
v 1.377617 -0.034722 -0.552828
v 1.376449 -0.029502 -0.143307
v 1.322049 -0.005024 -0.553365
v 1.320880 0.000197 -0.143844
v 1.273343 0.034944 -0.554014
v 1.272174 0.040165 -0.144493
v 1.233372 0.083645 -0.554749
v 1.232203 0.088865 -0.145228
v 1.203672 0.139208 -0.555542
v 1.202503 0.144428 -0.146021
v 1.185383 0.199496 -0.556363
v 1.184214 0.204717 -0.146842
v 1.179210 0.262195 -0.557179
v 1.178041 0.267415 -0.147658
v 1.185388 0.324893 -0.557961
v 1.184219 0.330113 -0.148440
v 1.203681 0.385182 -0.558677
v 1.202512 0.390402 -0.149156
v 1.233385 0.440744 -0.559301
v 1.232216 0.445965 -0.149780
v 1.273360 0.489445 -0.559808
v 1.272191 0.494666 -0.150287
v 1.322068 0.529413 -0.560178
v 1.320900 0.534633 -0.150657
v 1.377639 0.559112 -0.560398
v 1.376470 0.564332 -0.150877
v 1.437936 0.577400 -0.560459
v 1.436767 0.582621 -0.150938
v 1.500642 0.583576 -0.560359
v 1.499474 0.588796 -0.150838
v 1.563348 0.577400 -0.560101
v 1.562179 0.582620 -0.150580
v 1.623644 0.559112 -0.559696
v 1.622475 0.564332 -0.150175
v 1.679212 0.529413 -0.559159
v 1.678044 0.534633 -0.149638
v 1.727918 0.489445 -0.558510
v 1.726749 0.494665 -0.148989
v 1.767889 0.440744 -0.557775
v 1.766720 0.445964 -0.148254
v 1.797589 0.385182 -0.556982
v 1.796421 0.390402 -0.147461
v 1.815878 0.324893 -0.556162
v 1.814709 0.330113 -0.146641
v 1.822052 0.262194 -0.555345
v 1.820883 0.267415 -0.145824
v 1.815873 0.199496 -0.554563
v 1.814704 0.204716 -0.145042
v 1.797580 0.139207 -0.553847
v 1.796412 0.144428 -0.144326
v 1.767876 0.083645 -0.553223
v 1.766707 0.088865 -0.143702
v 1.727901 0.034944 -0.552717
v 1.726732 0.040164 -0.143196
v 1.679192 -0.005024 -0.552346
v 1.678024 0.000196 -0.142825
v 1.623622 -0.034723 -0.552126
v 1.622453 -0.029502 -0.142605
v 1.563325 -0.053011 -0.552065
v 1.562156 -0.047791 -0.142544
v 1.496276 -0.059184 0.968664
v 1.495107 -0.053964 1.378185
v 1.433570 -0.053009 0.968406
v 1.432401 -0.047789 1.377927
v 1.373274 -0.034721 0.968001
v 1.372105 -0.029500 1.377522
v 1.317706 -0.005022 0.967464
v 1.316537 0.000198 1.376985
v 1.269000 0.034946 0.966815
v 1.267832 0.040166 1.376336
v 1.229029 0.083647 0.966080
v 1.227860 0.088867 1.375601
v 1.199329 0.139209 0.965287
v 1.198160 0.144430 1.374808
v 1.181040 0.199498 0.964467
v 1.179872 0.204718 1.373988
v 1.174867 0.262196 0.963650
v 1.173698 0.267417 1.373171
v 1.181045 0.324895 0.962868
v 1.179876 0.330115 1.372389
v 1.199338 0.385184 0.962152
v 1.198169 0.390404 1.371673
v 1.229042 0.440746 0.961529
v 1.227874 0.445966 1.371050
v 1.269017 0.489447 0.961022
v 1.267848 0.494667 1.370543
v 1.317725 0.529415 0.960651
v 1.316557 0.534635 1.370172
v 1.373296 0.559114 0.960431
v 1.372127 0.564334 1.369952
v 1.433593 0.577402 0.960370
v 1.432424 0.582622 1.369891
v 1.496299 0.583577 0.960471
v 1.495131 0.588797 1.369992
v 1.559005 0.577402 0.960728
v 1.557837 0.582622 1.370249
v 1.619301 0.559114 0.961133
v 1.618132 0.564334 1.370654
v 1.674869 0.529415 0.961671
v 1.673701 0.534635 1.371192
v 1.723575 0.489447 0.962319
v 1.722406 0.494667 1.371840
v 1.763546 0.440746 0.963054
v 1.762377 0.445966 1.372575
v 1.793247 0.385183 0.963847
v 1.792078 0.390404 1.373368
v 1.811535 0.324895 0.964668
v 1.810366 0.330115 1.374189
v 1.817709 0.262196 0.965485
v 1.816540 0.267416 1.375006
v 1.811530 0.199498 0.966266
v 1.810362 0.204718 1.375787
v 1.793237 0.139209 0.966982
v 1.792068 0.144429 1.376503
v 1.763533 0.083647 0.967606
v 1.762364 0.088867 1.377127
v 1.723558 0.034946 0.968113
v 1.722389 0.040166 1.377634
v 1.674850 -0.005022 0.968483
v 1.673681 0.000198 1.378004
v 1.619279 -0.034721 0.968703
v 1.618110 -0.029501 1.378224
v 1.558982 -0.053009 0.968764
v 1.557813 -0.047789 1.378285
v -0.974955 -0.059186 -0.559231
v -0.976124 -0.053966 -0.149710
v -1.037661 -0.053011 -0.559488
v -1.038830 -0.047790 -0.149967
v -1.097956 -0.034722 -0.559894
v -1.099125 -0.029502 -0.150373
v -1.153525 -0.005024 -0.560431
v -1.154694 0.000197 -0.150910
v -1.202230 0.034944 -0.561079
v -1.203399 0.040165 -0.151558
v -1.242201 0.083645 -0.561814
v -1.243370 0.088865 -0.152293
v -1.271902 0.139208 -0.562607
v -1.273071 0.144428 -0.153086
v -1.290191 0.199496 -0.563428
v -1.291359 0.204717 -0.153907
v -1.296364 0.262195 -0.564245
v -1.297533 0.267415 -0.154724
v -1.290186 0.324893 -0.565026
v -1.291355 0.330113 -0.155505
v -1.271893 0.385182 -0.565743
v -1.273062 0.390402 -0.156222
v -1.242188 0.440744 -0.566366
v -1.243357 0.445965 -0.156845
v -1.202214 0.489445 -0.566873
v -1.203382 0.494666 -0.157352
v -1.153505 0.529413 -0.567243
v -1.154674 0.534633 -0.157722
v -1.097935 0.559112 -0.567463
v -1.099103 0.564332 -0.157942
v -1.037638 0.577400 -0.567524
v -1.038807 0.582621 -0.158003
v -0.974931 0.583576 -0.567424
v -0.976100 0.588796 -0.157903
v -0.912225 0.577400 -0.567166
v -0.913394 0.582620 -0.157645
v -0.851930 0.559112 -0.566761
v -0.853099 0.564332 -0.157240
v -0.796361 0.529413 -0.566224
v -0.797530 0.534633 -0.156703
v -0.747655 0.489445 -0.565575
v -0.748824 0.494665 -0.156054
v -0.707685 0.440744 -0.564841
v -0.708853 0.445964 -0.155320
v -0.677984 0.385182 -0.564048
v -0.679153 0.390402 -0.154527
v -0.659696 0.324893 -0.563227
v -0.660864 0.330113 -0.153706
v -0.653522 0.262194 -0.562410
v -0.654691 0.267415 -0.152889
v -0.659700 0.199496 -0.561628
v -0.660869 0.204716 -0.152107
v -0.677993 0.139207 -0.560912
v -0.679162 0.144428 -0.151391
v -0.707698 0.083645 -0.560289
v -0.708867 0.088865 -0.150768
v -0.747673 0.034944 -0.559782
v -0.748842 0.040164 -0.150261
v -0.796381 -0.005024 -0.559412
v -0.797550 0.000196 -0.149891
v -0.851952 -0.034723 -0.559192
v -0.853121 -0.029502 -0.149671
v -0.912249 -0.053011 -0.559131
v -0.913418 -0.047791 -0.149610
v -0.979295 -0.059187 0.961599
v -0.980464 -0.053966 1.371119
v -1.042001 -0.053011 0.961341
v -1.043170 -0.047791 1.370862
v -1.102297 -0.034723 0.960936
v -1.103466 -0.029503 1.370457
v -1.157866 -0.005024 0.960399
v -1.159034 0.000196 1.369920
v -1.206571 0.034944 0.959750
v -1.207740 0.040164 1.369271
v -1.246542 0.083645 0.959015
v -1.247710 0.088865 1.368536
v -1.276242 0.139207 0.958222
v -1.277411 0.144427 1.367743
v -1.294531 0.199496 0.957401
v -1.295700 0.204716 1.366922
v -1.300705 0.262194 0.956585
v -1.301873 0.267414 1.366106
v -1.294526 0.324892 0.955803
v -1.295695 0.330113 1.365324
v -1.276233 0.385181 0.955087
v -1.277402 0.390401 1.364608
v -1.246529 0.440744 0.954463
v -1.247698 0.445964 1.363984
v -1.206554 0.489445 0.953956
v -1.207723 0.494665 1.363477
v -1.157846 0.529412 0.953586
v -1.159015 0.534633 1.363107
v -1.102275 0.559111 0.953366
v -1.103444 0.564331 1.362887
v -1.041978 0.577400 0.953305
v -1.043147 0.582620 1.362826
v -0.979272 0.583575 0.953405
v -0.980440 0.588795 1.362926
v -0.916566 0.577399 0.953663
v -0.917735 0.582620 1.363184
v -0.856270 0.559111 0.954068
v -0.857439 0.564331 1.363589
v -0.800702 0.529412 0.954605
v -0.801870 0.534633 1.364126
v -0.751996 0.489444 0.955254
v -0.753165 0.494665 1.364775
v -0.712025 0.440743 0.955989
v -0.713194 0.445964 1.365510
v -0.682325 0.385181 0.956782
v -0.683493 0.390401 1.366303
v -0.664036 0.324892 0.957602
v -0.665205 0.330112 1.367123
v -0.657863 0.262194 0.958419
v -0.659031 0.267414 1.367940
v -0.664041 0.199495 0.959201
v -0.665210 0.204716 1.368722
v -0.682334 0.139207 0.959917
v -0.683503 0.144427 1.369438
v -0.712038 0.083644 0.960541
v -0.713207 0.088864 1.370062
v -0.752013 0.034943 0.961047
v -0.753182 0.040164 1.370568
v -0.800722 -0.005024 0.961418
v -0.801890 0.000196 1.370939
v -0.856292 -0.034723 0.961638
v -0.857461 -0.029503 1.371159
v -0.916589 -0.053012 0.961699
v -0.917758 -0.047791 1.371220
v -1.640274 1.884414 1.099187
v -1.640274 0.761638 1.099187
v -1.636259 0.761638 -0.307557
v -1.636259 1.884414 -0.307557
vn -1.0000 0.0000 0.0000
vn 0.0000 0.0000 -1.0000
vn -0.0000 -1.0000 0.0000
vn 1.0000 0.0000 0.0029
vn 0.0029 -0.0000 -1.0000
vn -0.0000 1.0000 0.0000
vn -0.0029 0.0000 1.0000
vn -1.0000 -0.0000 -0.0029
vn -0.9628 -0.2703 -0.0027
vn 0.0029 -1.0000 0.0000
vn 0.0011 -1.0000 0.0000
vn -0.0980 -0.9951 0.0124
vn -0.2903 -0.9569 0.0114
vn -0.4714 -0.8819 0.0099
vn -0.6344 -0.7730 0.0080
vn -0.7730 -0.6344 0.0059
vn -0.8819 -0.4714 0.0035
vn -0.9569 -0.2903 0.0010
vn -0.9952 -0.0980 -0.0016
vn -0.9952 0.0980 -0.0041
vn -0.9569 0.2903 -0.0064
vn -0.8819 0.4714 -0.0085
vn -0.7730 0.6344 -0.0103
vn -0.6343 0.7730 -0.0117
vn -0.4713 0.8819 -0.0126
vn -0.2902 0.9569 -0.0130
vn -0.0980 0.9951 -0.0130
vn 0.0980 0.9951 -0.0124
vn 0.2903 0.9569 -0.0114
vn 0.4714 0.8819 -0.0099
vn 0.6344 0.7730 -0.0080
vn 0.7730 0.6344 -0.0059
vn 0.8819 0.4714 -0.0035
vn 0.9569 0.2903 -0.0010
vn 0.9952 0.0980 0.0016
vn 0.9952 -0.0980 0.0041
vn 0.9569 -0.2903 0.0064
vn 0.8819 -0.4714 0.0085
vn 0.7730 -0.6344 0.0103
vn 0.6343 -0.7730 0.0117
vn 0.4713 -0.8819 0.0126
vn -0.0029 0.0127 0.9999
vn 0.0980 -0.9951 0.0130
vn 0.2902 -0.9569 0.0130
vn 0.0029 -0.0127 -0.9999
vn -0.0000 0.0000 1.0000
usemtl camion_bleu.1295
s off
f 3//1 1//1 2//1 4//1
f 1//2 302//2 301//2 2//2
f 4//3 2//3 301//3 304//3
f 5//4 6//4 7//4 8//4 9//4 10//4
f 6//4 9//4 8//4 11//4 12//4 7//4
f 7//5 12//5 13//5 14//5 15//5 16//5 17//5 18//5
f 19//6 8//6 7//6 20//6
f 8//7 21//7 22//7 23//7 24//7 25//7 26//7 11//7
f 12//3 11//3 26//3 13//3
f 7//5 18//5 27//5 16//5 15//5 20//5
f 14//8 13//8 26//8 25//8
f 14//6 25//6 24//6 15//6
f 23//4 22//4 17//4 16//4
f 18//6 17//6 22//6 21//6 28//6 29//6 30//6 31//6
f 19//8 20//8 15//8 24//8
f 8//7 19//7 24//7 23//7 32//7 21//7
f 27//9 18//9 31//9 33//9 34//9 28//9 21//9 32//9
f 16//10 27//10 32//10 23//10
f 10//5 9//5 35//5 29//5 28//5 34//5
f 34//11 33//11 5//11 10//11
f 30//4 29//4 35//4 36//4
f 9//6 6//6 36//6 35//6
f 33//7 31//7 30//7 36//7 6//7 5//7
f 41//4 42//4 38//4 37//4
f 42//7 43//7 39//7 38//7
f 43//8 44//8 304//8 301//8 302//8 39//8
f 44//5 41//5 37//5 40//5
f 37//3 38//3 39//3 40//3
f 44//6 43//6 42//6 41//6
f 45//12 46//12 48//12 47//12
f 47//13 48//13 50//13 49//13
f 49//14 50//14 52//14 51//14
f 51//15 52//15 54//15 53//15
f 53//16 54//16 56//16 55//16
f 55//17 56//17 58//17 57//17
f 57//18 58//18 60//18 59//18
f 59//19 60//19 62//19 61//19
f 61//20 62//20 64//20 63//20
f 63//21 64//21 66//21 65//21
f 65//22 66//22 68//22 67//22
f 67//23 68//23 70//23 69//23
f 69//24 70//24 72//24 71//24
f 71//25 72//25 74//25 73//25
f 73//26 74//26 76//26 75//26
f 75//27 76//27 78//27 77//27
f 77//28 78//28 80//28 79//28
f 79//29 80//29 82//29 81//29
f 81//30 82//30 84//30 83//30
f 83//31 84//31 86//31 85//31
f 85//32 86//32 88//32 87//32
f 87//33 88//33 90//33 89//33
f 89//34 90//34 92//34 91//34
f 91//35 92//35 94//35 93//35
f 93//36 94//36 96//36 95//36
f 95//37 96//37 98//37 97//37
f 97//38 98//38 100//38 99//38
f 99//39 100//39 102//39 101//39
f 101//40 102//40 104//40 103//40
f 103//41 104//41 106//41 105//41
f 48//42 46//42 108//42 106//42 104//42 102//42 100//42 98//42 96//42 94//42 92//42 90//42 88//42 86//42 84//42 82//42 80//42 78//42 76//42 74//42 72//42 70//42 68//42 66//42 64//42 62//42 60//42 58//42 56//42 54//42 52//42 50//42
f 107//43 108//43 46//43 45//43
f 105//44 106//44 108//44 107//44
f 45//45 47//45 49//45 51//45 53//45 55//45 57//45 59//45 61//45 63//45 65//45 67//45 69//45 71//45 73//45 75//45 77//45 79//45 81//45 83//45 85//45 87//45 89//45 91//45 93//45 95//45 97//45 99//45 101//45 103//45 105//45 107//45
f 109//12 110//12 112//12 111//12
f 111//13 112//13 114//13 113//13
f 113//14 114//14 116//14 115//14
f 115//15 116//15 118//15 117//15
f 117//16 118//16 120//16 119//16
f 119//17 120//17 122//17 121//17
f 121//18 122//18 124//18 123//18
f 123//19 124//19 126//19 125//19
f 125//20 126//20 128//20 127//20
f 127//21 128//21 130//21 129//21
f 129//22 130//22 132//22 131//22
f 131//23 132//23 134//23 133//23
f 133//24 134//24 136//24 135//24
f 135//25 136//25 138//25 137//25
f 137//26 138//26 140//26 139//26
f 139//27 140//27 142//27 141//27
f 141//28 142//28 144//28 143//28
f 143//29 144//29 146//29 145//29
f 145//30 146//30 148//30 147//30
f 147//31 148//31 150//31 149//31
f 149//32 150//32 152//32 151//32
f 151//33 152//33 154//33 153//33
f 153//34 154//34 156//34 155//34
f 155//35 156//35 158//35 157//35
f 157//36 158//36 160//36 159//36
f 159//37 160//37 162//37 161//37
f 161//38 162//38 164//38 163//38
f 163//39 164//39 166//39 165//39
f 165//40 166//40 168//40 167//40
f 167//41 168//41 170//41 169//41
f 112//42 110//42 172//42 170//42 168//42 166//42 164//42 162//42 160//42 158//42 156//42 154//42 152//42 150//42 148//42 146//42 144//42 142//42 140//42 138//42 136//42 134//42 132//42 130//42 128//42 126//42 124//42 122//42 120//42 118//42 116//42 114//42
f 171//43 172//43 110//43 109//43
f 169//44 170//44 172//44 171//44
f 109//45 111//45 113//45 115//45 117//45 119//45 121//45 123//45 125//45 127//45 129//45 131//45 133//45 135//45 137//45 139//45 141//45 143//45 145//45 147//45 149//45 151//45 153//45 155//45 157//45 159//45 161//45 163//45 165//45 167//45 169//45 171//45
f 173//12 174//12 176//12 175//12
f 175//13 176//13 178//13 177//13
f 177//14 178//14 180//14 179//14
f 179//15 180//15 182//15 181//15
f 181//16 182//16 184//16 183//16
f 183//17 184//17 186//17 185//17
f 185//18 186//18 188//18 187//18
f 187//19 188//19 190//19 189//19
f 189//20 190//20 192//20 191//20
f 191//21 192//21 194//21 193//21
f 193//22 194//22 196//22 195//22
f 195//23 196//23 198//23 197//23
f 197//24 198//24 200//24 199//24
f 199//25 200//25 202//25 201//25
f 201//26 202//26 204//26 203//26
f 203//27 204//27 206//27 205//27
f 205//28 206//28 208//28 207//28
f 207//29 208//29 210//29 209//29
f 209//30 210//30 212//30 211//30
f 211//31 212//31 214//31 213//31
f 213//32 214//32 216//32 215//32
f 215//33 216//33 218//33 217//33
f 217//34 218//34 220//34 219//34
f 219//35 220//35 222//35 221//35
f 221//36 222//36 224//36 223//36
f 223//37 224//37 226//37 225//37
f 225//38 226//38 228//38 227//38
f 227//39 228//39 230//39 229//39
f 229//40 230//40 232//40 231//40
f 231//41 232//41 234//41 233//41
f 176//42 174//42 236//42 234//42 232//42 230//42 228//42 226//42 224//42 222//42 220//42 218//42 216//42 214//42 212//42 210//42 208//42 206//42 204//42 202//42 200//42 198//42 196//42 194//42 192//42 190//42 188//42 186//42 184//42 182//42 180//42 178//42
f 235//43 236//43 174//43 173//43
f 233//44 234//44 236//44 235//44
f 173//45 175//45 177//45 179//45 181//45 183//45 185//45 187//45 189//45 191//45 193//45 195//45 197//45 199//45 201//45 203//45 205//45 207//45 209//45 211//45 213//45 215//45 217//45 219//45 221//45 223//45 225//45 227//45 229//45 231//45 233//45 235//45
f 237//12 238//12 240//12 239//12
f 239//13 240//13 242//13 241//13
f 241//14 242//14 244//14 243//14
f 243//15 244//15 246//15 245//15
f 245//16 246//16 248//16 247//16
f 247//17 248//17 250//17 249//17
f 249//18 250//18 252//18 251//18
f 251//19 252//19 254//19 253//19
f 253//20 254//20 256//20 255//20
f 255//21 256//21 258//21 257//21
f 257//22 258//22 260//22 259//22
f 259//23 260//23 262//23 261//23
f 261//24 262//24 264//24 263//24
f 263//25 264//25 266//25 265//25
f 265//26 266//26 268//26 267//26
f 267//27 268//27 270//27 269//27
f 269//28 270//28 272//28 271//28
f 271//29 272//29 274//29 273//29
f 273//30 274//30 276//30 275//30
f 275//31 276//31 278//31 277//31
f 277//32 278//32 280//32 279//32
f 279//33 280//33 282//33 281//33
f 281//34 282//34 284//34 283//34
f 283//35 284//35 286//35 285//35
f 285//36 286//36 288//36 287//36
f 287//37 288//37 290//37 289//37
f 289//38 290//38 292//38 291//38
f 291//39 292//39 294//39 293//39
f 293//40 294//40 296//40 295//40
f 295//41 296//41 298//41 297//41
f 240//42 238//42 300//42 298//42 296//42 294//42 292//42 290//42 288//42 286//42 284//42 282//42 280//42 278//42 276//42 274//42 272//42 270//42 268//42 266//42 264//42 262//42 260//42 258//42 256//42 254//42 252//42 250//42 248//42 246//42 244//42 242//42
f 299//43 300//43 238//43 237//43
f 297//44 298//44 300//44 299//44
f 237//45 239//45 241//45 243//45 245//45 247//45 249//45 251//45 253//45 255//45 257//45 259//45 261//45 263//45 265//45 267//45 269//45 271//45 273//45 275//45 277//45 279//45 281//45 283//45 285//45 287//45 289//45 291//45 293//45 295//45 297//45 299//45
f 39//8 302//8 303//8 304//8 44//8 40//8
f 303//46 3//46 4//46 304//46
f 302//6 1//6 3//6 303//6
